<svg xmlns="http://www.w3.org/2000/svg" xmlns:xlink="http://www.w3.org/1999/xlink" viewBox="0,0,256,256" width="96px" height="96px"><g fill="#000000" fill-rule="nonzero" stroke="none" stroke-width="1" stroke-linecap="butt" stroke-linejoin="miter" stroke-miterlimit="10" stroke-dasharray="" stroke-dashoffset="0" font-family="none" font-weight="none" font-size="none" text-anchor="none" style="mix-blend-mode: normal"><g transform="scale(10.66667,10.66667)"><path d="M16.70703,2.29297l-1.41406,1.41406l2.29297,2.29297h-0.58594c-6.06341,0 -11,4.93659 -11,11v1h2v-1c0,-4.98259 4.01741,-9 9,-9h0.58594l-2.29297,2.29297l1.41406,1.41406l4.70703,-4.70703zM2,8v1v10c0,1.64497 1.35503,3 3,3h14c1.64497,0 3,-1.35503 3,-3v-1v-1h-2v1v1c0,0.56503 -0.43497,1 -1,1h-14c-0.56503,0 -1,-0.43497 -1,-1v-10v-1z"></path></g></g></svg>
